<?xml version="1.0" encoding="utf-8"?>
<!-- Generator: Adobe Illustrator 16.0.0, SVG Export Plug-In . SVG Version: 6.00 Build 0)  -->
<!DOCTYPE svg PUBLIC "-//W3C//DTD SVG 1.1//EN" "http://www.w3.org/Graphics/SVG/1.1/DTD/svg11.dtd">
<svg version="1.1" id="Layer_1" xmlns="http://www.w3.org/2000/svg" xmlns:xlink="http://www.w3.org/1999/xlink" x="0px" y="0px"
	 width="864px" height="864px" viewBox="0 0 864 864" enable-background="new 0 0 864 864" xml:space="preserve">
<path fill-rule="evenodd" clip-rule="evenodd" fill="#FFF200" d="M434.149,795.178C226.667,792.423,64.362,637.46,66.728,417.55
	C68.911,214.625,232.017,64.508,421.35,59.9c222.247-5.409,379.191,166.829,379.917,359.042
	C802.074,633.393,642.493,792.92,434.149,795.178z"/>
<g>
	<path fill-rule="evenodd" clip-rule="evenodd" fill="#ED1C24" d="M132.011,354.573c0.045-50.826,46.025-79.267,91.201-56.352
		c4.715,2.392,9.287,5.117,13.726,7.997c20.521,13.309,24.499,12.038,35.689-10.851c2.572-5.259,5.75-10.355,9.386-14.941
		c19.18-24.173,40.197-30.9,65.24-21.245c27.688,10.675,48.292,37.114,43.507,64.011c-4.04,22.692-12.81,45.415-23.809,65.791
		c-15.683,29.051-35.377,55.929-53.237,83.813c-7.966,12.438-17.831,16.474-31.459,8.697
		c-35.402-20.196-71.562-39.158-106.173-60.622C152.008,405.946,132.232,386.228,132.011,354.573z"/>
	<path fill-rule="evenodd" clip-rule="evenodd" fill="#ED1C24" d="M735.703,351.328c0.554,32.803-16.865,52.095-38.525,65.839
		c-36.855,23.386-75.604,43.793-113.628,65.327c-10.409,5.895-20.082,3.998-26.343-5.991
		c-24.469-39.041-50.238-77.434-71.99-117.965c-18.544-34.552-9.963-67.015,17.827-89.128c32.22-25.637,71.98-15.504,91.333,23.277
		c13.592,27.239,14.445,27.389,40.173,11.068c20.913-13.267,42.997-20.555,66.987-8.779
		C721.695,304.87,735.853,330.775,735.703,351.328z"/>
</g>
<path fill-rule="evenodd" clip-rule="evenodd" fill="#603913" d="M423.764,720.656c-65.892-2.951-121.666-37.215-162.375-97.545
	c-5.944-8.811-11.696-17.927-16.107-27.556c-8.096-17.665-1.213-26.688,18.05-23.485c22.123,3.676,43.899,9.646,66.095,12.632
	c89.438,12.033,178.344,10.316,266.469-11.464c7.474-1.848,18.558-0.174,23.885,4.509c3.236,2.843,0.617,15.613-2.744,22.204
	C579.256,674.061,506.755,720.901,423.764,720.656z"/>
</svg>
