<?xml version="1.0" encoding="utf-8"?>
<!-- Generator: Adobe Illustrator 19.1.0, SVG Export Plug-In . SVG Version: 6.00 Build 0)  -->
<svg version="1.1" id="Layer_1" xmlns="http://www.w3.org/2000/svg" xmlns:xlink="http://www.w3.org/1999/xlink" x="0px" y="0px"
	 viewBox="0 0 191.8 41.2" style="enable-background:new 0 0 191.8 41.2;" xml:space="preserve">
<path d="M22.5,2c10.2,0,18.6,8.3,18.6,18.6s-8.3,18.6-18.6,18.6S3.9,30.8,3.9,20.6S12.2,2,22.5,2 M22.5,0C11.1,0,1.9,9.2,1.9,20.6
	s9.2,20.6,20.6,20.6S43.1,32,43.1,20.6S33.8,0,22.5,0z M63.8,21.2c0,1.6-0.3,3-0.8,4.2s-1.2,2.1-2.2,2.7c-0.9,0.6-2,0.9-3.3,0.9
	c-1.2,0-2.3-0.3-3.3-0.9c-0.9-0.6-1.7-1.5-2.2-2.7s-0.8-2.5-0.8-4.1v-1.2c0-1.6,0.3-3,0.8-4.2s1.3-2.1,2.2-2.8c1-0.6,2-1,3.3-1
	c1.2,0,2.3,0.3,3.3,0.9c1,0.6,1.7,1.5,2.2,2.7s0.8,2.6,0.8,4.2C63.8,19.9,63.8,21.2,63.8,21.2z M61.7,20.2c0-1.9-0.4-3.4-1.1-4.5
	c-0.7-1-1.8-1.6-3.1-1.6s-2.3,0.5-3.1,1.6c-0.7,1-1.1,2.5-1.1,4.3v1.2c0,1.9,0.4,3.4,1.1,4.4c0.8,1.1,1.8,1.6,3.1,1.6
	s2.3-0.5,3.1-1.5c0.7-1,1.1-2.5,1.1-4.4V20.2z M76.3,22.9c0,1.8-0.4,3.3-1.2,4.5c-0.8,1.1-1.9,1.7-3.3,1.7s-2.5-0.5-3.3-1.4v5.8h-2
	V16.7h1.8l0.1,1.3c0.8-1,1.9-1.6,3.4-1.6c1.4,0,2.5,0.5,3.3,1.6s1.2,2.6,1.2,4.6C76.3,22.6,76.3,22.9,76.3,22.9z M74.3,22.7
	c0-1.4-0.3-2.4-0.8-3.2c-0.6-0.8-1.3-1.2-2.3-1.2c-1.2,0-2.1,0.6-2.7,1.7v5.8c0.6,1.1,1.5,1.7,2.7,1.7c0.9,0,1.7-0.4,2.3-1.2
	C74,25.4,74.3,24.2,74.3,22.7z M83.6,29.1c-1.6,0-2.8-0.5-3.8-1.6s-1.5-2.5-1.5-4.3v-0.4c0-1.2,0.2-2.3,0.7-3.2s1.1-1.7,1.8-2.2
	c0.8-0.5,1.6-0.8,2.6-0.8c1.5,0,2.7,0.5,3.5,1.6s1.2,2.5,1.2,4.5v0.9h-7.8c0,1.2,0.4,2.2,1,2.9s1.4,1.1,2.4,1.1
	c0.7,0,1.3-0.1,1.8-0.4s0.9-0.7,1.3-1.2l1.2,1C87,28.3,85.5,29.1,83.6,29.1z M83.4,18.2c-0.8,0-1.5,0.3-2,0.9s-0.9,1.5-1,2.6h5.8
	v-0.2c-0.1-1.1-0.3-1.9-0.8-2.5C84.8,18.5,84.2,18.2,83.4,18.2z M92.3,16.7l0.1,1.5c0.9-1.2,2-1.7,3.5-1.7c2.4,0,3.7,1.4,3.7,4.3v8
	h-2v-8c0-0.9-0.2-1.5-0.6-1.9s-1-0.6-1.7-0.6c-0.6,0-1.2,0.2-1.7,0.5c-0.5,0.4-0.9,0.8-1.1,1.4v8.6h-2V16.7
	C90.5,16.7,92.3,16.7,92.3,16.7z M111.3,21.6h-6.5v7.2h-2.1V12.5h9.6v1.8h-7.6v5.6h6.5L111.3,21.6L111.3,21.6z M119.9,18.6
	c-0.3-0.1-0.6-0.1-1-0.1c-1.3,0-2.2,0.6-2.6,1.7v8.6h-2V16.7h1.9v1.4c0.6-1.1,1.6-1.6,2.8-1.6c0.4,0,0.7,0.1,0.9,0.2
	C119.9,16.7,119.9,18.6,119.9,18.6z M126.3,29.1c-1.6,0-2.8-0.5-3.8-1.6S121,25,121,23.2v-0.4c0-1.2,0.2-2.3,0.7-3.2
	c0.4-0.9,1-1.7,1.8-2.2s1.6-0.8,2.6-0.8c1.5,0,2.7,0.5,3.5,1.6c0.8,1,1.2,2.5,1.2,4.5v0.9h-7.9c0,1.2,0.4,2.2,1,2.9
	c0.6,0.7,1.4,1.1,2.4,1.1c0.7,0,1.3-0.1,1.8-0.4c0.5-0.3,0.9-0.7,1.3-1.2l1.2,1C129.6,28.3,128.2,29.1,126.3,29.1z M126,18.2
	c-0.8,0-1.5,0.3-2,0.9s-0.9,1.5-1,2.6h5.8v-0.2c-0.1-1.1-0.3-1.9-0.8-2.5C127.5,18.5,126.8,18.2,126,18.2z M137.8,29.1
	c-1.6,0-2.8-0.5-3.8-1.6s-1.5-2.5-1.5-4.3v-0.4c0-1.2,0.2-2.3,0.7-3.2c0.4-0.9,1-1.7,1.8-2.2s1.6-0.8,2.6-0.8c1.5,0,2.7,0.5,3.5,1.6
	s1.2,2.5,1.2,4.5v0.9h-7.8c0,1.2,0.4,2.2,1,2.9c0.6,0.7,1.4,1.1,2.4,1.1c0.7,0,1.3-0.1,1.8-0.4s0.9-0.7,1.3-1.2l1.2,1
	C141.2,28.3,139.8,29.1,137.8,29.1z M137.6,18.2c-0.8,0-1.5,0.3-2,0.9s-0.9,1.5-1,2.6h5.8v-0.2c-0.1-1.1-0.3-1.9-0.8-2.5
	C139.1,18.5,138.4,18.2,137.6,18.2z M156.4,23.7c-0.2,1.7-0.8,3.1-1.8,4s-2.4,1.4-4.1,1.4c-1.8,0-3.3-0.7-4.4-2.1
	c-1.1-1.4-1.7-3.2-1.7-5.6v-1.6c0-1.5,0.3-2.9,0.8-4c0.5-1.2,1.2-2,2.2-2.7c0.9-0.6,2-0.9,3.3-0.9c1.7,0,3,0.5,4,1.5s1.6,2.3,1.7,4
	h-2.1c-0.2-1.3-0.6-2.2-1.2-2.8s-1.4-0.9-2.5-0.9c-1.3,0-2.3,0.5-3.1,1.5c-0.7,1-1.1,2.5-1.1,4.3v1.6c0,1.8,0.4,3.2,1.1,4.2
	c0.7,1,1.7,1.6,3,1.6c1.1,0,2-0.3,2.6-0.8s1-1.5,1.2-2.8L156.4,23.7L156.4,23.7z M166,28.9c-0.1-0.2-0.2-0.7-0.3-1.3
	c-0.9,1-2,1.5-3.3,1.5c-1.1,0-2.1-0.3-2.8-1s-1.1-1.5-1.1-2.6c0-1.3,0.5-2.2,1.4-2.9s2.2-1,3.9-1h1.9v-1c0-0.7-0.2-1.3-0.6-1.7
	c-0.4-0.4-1-0.6-1.8-0.6c-0.7,0-1.3,0.2-1.8,0.6s-0.7,0.8-0.7,1.4h-2c0-0.6,0.2-1.2,0.6-1.8c0.4-0.6,1-1,1.7-1.3s1.5-0.5,2.3-0.5
	c1.3,0,2.4,0.3,3.1,1s1.1,1.7,1.2,2.9V26c0,1.1,0.1,2,0.4,2.7v0.2H166L166,28.9z M162.7,27.3c0.6,0,1.2-0.2,1.8-0.5s1-0.8,1.2-1.3
	V23h-1.5c-2.4,0-3.6,0.7-3.6,2.2c0,0.7,0.2,1.2,0.6,1.5S162.1,27.3,162.7,27.3z M180.6,22.9c0,1.9-0.4,3.3-1.2,4.5s-1.9,1.7-3.3,1.7
	c-1.5,0-2.6-0.5-3.4-1.6l-0.1,1.4h-1.8V11.6h2V18c0.8-1,1.9-1.6,3.3-1.6s2.5,0.6,3.3,1.7s1.2,2.6,1.2,4.6V22.9z M178.6,22.7
	c0-1.4-0.3-2.5-0.8-3.3s-1.3-1.2-2.2-1.2c-1.3,0-2.2,0.6-2.8,1.9v5.2c0.6,1.3,1.5,1.9,2.8,1.9c0.9,0,1.7-0.4,2.2-1.2
	C178.3,25.4,178.6,24.2,178.6,22.7z M189.8,25.6c0-0.6-0.2-1-0.6-1.3c-0.4-0.3-1.1-0.6-2.1-0.8c-1-0.2-1.8-0.5-2.4-0.8
	c-0.6-0.3-1-0.7-1.3-1.1s-0.4-0.9-0.4-1.5c0-1,0.4-1.8,1.2-2.5s1.8-1,3.1-1s2.4,0.4,3.2,1.1s1.2,1.6,1.2,2.7h-2
	c0-0.6-0.2-1.1-0.7-1.5s-1-0.6-1.7-0.6s-1.3,0.2-1.7,0.5s-0.6,0.8-0.6,1.3s0.2,0.9,0.6,1.1c0.4,0.3,1.1,0.5,2,0.7
	c1,0.2,1.8,0.5,2.4,0.8c0.6,0.3,1.1,0.7,1.4,1.2c0.3,0.5,0.4,1,0.4,1.7c0,1.1-0.4,2-1.2,2.6s-1.9,1-3.2,1c-0.9,0-1.7-0.2-2.5-0.5
	s-1.3-0.8-1.7-1.4s-0.6-1.3-0.6-2h2c0,0.7,0.3,1.2,0.8,1.7c0.5,0.4,1.1,0.6,2,0.6c0.7,0,1.3-0.2,1.8-0.5S189.8,26.2,189.8,25.6z"/>
<path d="M14.3,28.3c-1.6,0-3-1.3-3-3c0-1.6,1.3-3,3-3s3,1.3,3,3C17.3,27,15.9,28.3,14.3,28.3z M14.3,23.5c-1,0-1.9,0.9-1.9,1.9
	s0.9,1.9,1.9,1.9c1,0,1.9-0.9,1.9-1.9S15.3,23.5,14.3,23.5z M14.3,26.2c-0.4,0-0.8-0.4-0.8-0.8c0-0.4,0.4-0.8,0.8-0.8
	s0.8,0.4,0.8,0.8C15.1,25.8,14.7,26.2,14.3,26.2z M14.3,25.1c-0.2,0-0.3,0.1-0.3,0.3s0.1,0.3,0.3,0.3c0.2,0,0.3-0.1,0.3-0.3
	S14.4,25.1,14.3,25.1z M34.5,25.6h-1.6v-1.1h1.6c0.3-0.1,1-1.2,1.1-1.7c0.2-0.9-0.1-1.5-0.3-1.8c-0.3-0.5-0.7-0.7-0.9-0.7
	c-0.6-0.1-1.7-0.3-2.7-0.5c-1.3-0.3-3-0.5-3.2-0.6v-1.1c0.2,0,0.7,0.1,3.3,0.6c1,0.2,2,0.4,2.7,0.5c0.6,0.1,1.2,0.6,1.6,1.2
	c0.4,0.5,0.7,1.5,0.4,2.7C36.6,23.5,35.6,25.6,34.5,25.6z M11.9,25.6h-1.6c-1.5,0-2.7-1.2-2.7-2.7v-2.2c0-1.5,1.2-2.7,2.7-2.7h2.4
	l1.1-2.2c0.6-1.3,2-2.1,3.5-2.1h7c1.3,0,2.5,0.6,3.2,1.8l1.7,2.8L28.1,19l-1.7-2.8c-0.5-0.8-1.3-1.3-2.3-1.3h-7
	c-1.1,0-2,0.6-2.5,1.5l-1.4,2.8h-3c-0.9,0-1.6,0.7-1.6,1.6V23c0,0.9,0.7,1.6,1.6,1.6h1.6V25.6z M30.5,28.3c-1.6,0-3-1.3-3-3
	c0-1.6,1.3-3,3-3c1.6,0,3,1.3,3,3C33.4,27,32.1,28.3,30.5,28.3z M30.5,23.5c-1,0-1.9,0.9-1.9,1.9s0.9,1.9,1.9,1.9
	c1,0,1.9-0.9,1.9-1.9S31.5,23.5,30.5,23.5z M30.5,26.2c-0.4,0-0.8-0.4-0.8-0.8c0-0.4,0.4-0.8,0.8-0.8c0.4,0,0.8,0.4,0.8,0.8
	C31.3,25.8,30.9,26.2,30.5,26.2z M30.5,25.1c-0.2,0-0.3,0.1-0.3,0.3s0.1,0.3,0.3,0.3c0.2,0,0.3-0.1,0.3-0.3S30.6,25.1,30.5,25.1z
	 M28.6,19.2H21v-3.8h5.4v1.1h-4.3v1.6h6.5V19.2z M21.6,19.2h-4.9c-0.4,0-0.8-0.2-1-0.6c-0.2-0.4-0.2-0.8,0-1.1l0.8-1.3
	c0.3-0.4,0.8-0.7,1.2-0.7h3.8v1.1h-3.8c-0.1,0-0.3,0.1-0.3,0.2L16.6,18l0.1,0.1h4.9V19.2z M16.7,24.6h10.8v1.1H16.7V24.6z M8.1,20.3
	h1.6v1.1H8.1V20.3z M34,21.3h2.2v1.1H34V21.3z M19.4,20.8h1.1v1.1h-1.1V20.8z M20.5,21.9h1.1V23h-1.1V21.9z M21.6,20.8h1.1v1.1h-1.1
	V20.8z M23.7,20.8h1.1v1.1h-1.1V20.8z M22.6,21.9h1.1V23h-1.1V21.9z M24.3,14.3h-1.1v-1.1c0-0.3-0.3-0.5-0.6-0.5h-3
	c-0.3,0-0.6,0.2-0.6,0.5v1.1h-1.1v-1.1c0-0.9,0.8-1.6,1.7-1.6h3c1,0,1.7,0.7,1.7,1.6V14.3z M2.7,21.3h3.2v1.1H2.7V21.3z M0,18.6h4.9
	v1.1H0V18.6z M2.7,15.9h7.5V17H2.7V15.9z"/>
</svg>
