<?xml version="1.0" encoding="utf-8"?>
<!-- Svg Vector Icons : http://www.onlinewebfonts.com/icon -->
<!DOCTYPE svg PUBLIC "-//W3C//DTD SVG 1.1//EN" "http://www.w3.org/Graphics/SVG/1.1/DTD/svg11.dtd">
<svg version="1.1" xmlns="http://www.w3.org/2000/svg" xmlns:xlink="http://www.w3.org/1999/xlink" x="0px" y="0px" viewBox="0 0 1000 1000" enable-background="new 0 0 1000 1000" xml:space="preserve">
<metadata> Svg Vector Icons : http://www.onlinewebfonts.com/icon </metadata>
<g><path d="M318.1,502c0,98.3,79.7,177.9,177.9,177.9c98.3,0,177.9-79.7,177.9-177.9c0-98.3-79.7-177.9-177.9-177.9C397.7,324.1,318.1,403.7,318.1,502z"/><path d="M889.1,466.1c-15.9-191.2-170-342.6-361.2-355.9V9.3h-67.7v102.2c-185.9,17.3-333.3,167.3-349.2,354.6H10v67.7h100.9c15.9,187.2,163.3,336,349.2,354.6v102.3h67.7V889.7c191.2-13.3,345.3-164.7,361.2-355.9H990v-67.7H889.1L889.1,466.1z M500,819.4c-176.6,0-318.7-143.4-318.7-318.7S324.7,182,500,182c176.6,0,318.7,143.4,318.7,318.7S676.6,819.4,500,819.4z"/></g>
</svg>